<?xml version="1.0" encoding="UTF-8" standalone="no"?>
<!-- Created with Inkscape (http://www.inkscape.org/) -->

<svg
   width="251mm"
   height="210mm"
   viewBox="0 0 251 210"
   version="1.1"
   id="svg1"
   xml:space="preserve"
   xmlns:xlink="http://www.w3.org/1999/xlink"
   xmlns="http://www.w3.org/2000/svg"
   xmlns:svg="http://www.w3.org/2000/svg"><defs
     id="defs1"><color-profile
       name="Built-in-display"
       xlink:href="../.local/share/icc/edid-298a9c2f5de132541bd5df524c2272eb.icc"
       id="color-profile1" /></defs><g
     id="layer1"><g
       id="g24"
       transform="matrix(1.4154673,0,0,1.4154673,-88.708328,-31.913748)"><g
         id="g14"><rect
           style="opacity:1;fill:#ffffff;fill-opacity:1;stroke-width:0.262853"
           id="rect2"
           width="2.7515063"
           height="91.143646"
           x="149.95709"
           y="69.647507"
           ry="1.3757532" /><path
           id="rect8"
           style="opacity:1;fill:#ffffff;stroke-width:0.206162"
           d="m 81.980782,23.982737 c 28.204098,7.398139 52.265258,21.888237 70.526248,46.319397 l -2.32947,1.158004 C 132.74658,50.237643 110.45017,34.829726 82.013286,26.906032 Z" /><path
           id="rect8-2"
           style="fill:#ffffff;stroke-width:0.206162"
           d="m 81.343294,107.41901 c 28.204096,7.39814 52.022056,27.72506 68.215836,52.76422 l -3.30227,0.1852 C 131.25789,136.71392 109.81268,118.26599 81.375798,110.3423 Z" /><path
           id="rect8-2-6"
           style="fill:#ffffff;stroke-width:0.206162"
           d="m 66.840668,117.69396 c 30.446325,4.84502 63.252062,18.94404 80.649622,42.95138 l -1.50986,1.06817 C 128.83185,140.63854 96.185727,124.10966 66.888999,120.31323 Z" /><path
           id="rect9"
           style="opacity:1;fill:#ffffff;stroke-width:0.264003"
           d="m 81.169441,23.78688 c 0.782495,0.160939 1.550659,0.393536 2.323968,0.600403 l 0.076,86.565977 -2.373368,-0.6612 z" /><path
           id="path10"
           style="opacity:1;fill:#ffffff;stroke-width:0.264003"
           d="m 66.705148,46.015352 c 0.782495,0.160939 1.971609,-0.08588 2.744918,0.120988 l -0.02924,92.93869 -2.700773,-0.54427 z" /><path
           id="rect10"
           style="opacity:1;fill:#ffffff;stroke-width:0.448654"
           d="m 66.697105,45.789949 10.254798,-2.451527 v 2.872476 l -10.243105,2.549083 z" /><path
           id="rect11"
           style="opacity:1;fill:#ffffff;stroke-width:0.264583"
           d="m 66.741142,132.95312 c 25.097269,2.97665 53.107588,13.07934 74.678638,26.45833 l -3.175,0.66147 C 116.20972,152.49983 92.42811,144.62511 66.741142,138.44323 Z" /><path
           id="rect12"
           style="opacity:1;fill:#ffffff;stroke-width:0.264583"
           d="m 136.62422,159.31224 4.62194,-0.008 4.15478,2.58795 -6.19703,1.91823 c -1.16622,-1.28023 -1.84816,-2.95687 -2.57969,-4.49791 z" /><path
           id="path12"
           style="opacity:1;fill:#ffffff;stroke-width:0.264583"
           transform="translate(4.6963542,0.72760416)"
           d="m 147.68084,168.93938 c -2.11291,-0.0781 -5.56172,0.41548 -8.50282,-1.47467 -1.78922,-1.19469 -3.53043,-2.66756 -4.71647,-4.4509 l 6.49545,-6.66344 7.07606,2.40209 z" /><path
           id="rect13"
           style="opacity:1;fill:#ffffff;stroke-width:0.125547"
           d="m 138.8212,163.35167 h 0.23331 l 0.73734,0.94713 h -0.23331 c -0.2795,-0.30886 -0.51134,-0.62741 -0.73734,-0.94713 z" /></g><g
         id="g23"
         transform="matrix(-1,0,0,1,302.668,-0.00435668)"><rect
           style="opacity:1;fill:#ffffff;fill-opacity:1;stroke-width:0.262853"
           id="rect14"
           width="2.7515063"
           height="91.143646"
           x="149.95709"
           y="69.647507"
           ry="1.3757532" /><path
           id="path14"
           style="opacity:1;fill:#ffffff;stroke-width:0.206162"
           d="m 81.980782,23.982737 c 28.204098,7.398139 52.265258,21.888237 70.526248,46.319397 l -2.32947,1.158004 C 132.74658,50.237643 110.45017,34.829726 82.013286,26.906032 Z" /><path
           id="path15"
           style="fill:#ffffff;stroke-width:0.206162"
           d="m 81.343294,107.41901 c 28.204096,7.39814 52.022056,27.72506 68.215836,52.76422 l -3.30227,0.1852 C 131.25789,136.71392 109.81268,118.26599 81.375798,110.3423 Z" /><path
           id="path16"
           style="fill:#ffffff;stroke-width:0.206162"
           d="m 66.840668,117.69396 c 30.446325,4.84502 63.252062,18.94404 80.649622,42.95138 l -1.50986,1.06817 C 128.83185,140.63854 96.185727,124.10966 66.888999,120.31323 Z" /><path
           id="path17"
           style="opacity:1;fill:#ffffff;stroke-width:0.264003"
           d="m 81.169441,23.78688 c 0.782495,0.160939 1.550659,0.393536 2.323968,0.600403 l 0.076,86.565977 -2.373368,-0.6612 z" /><path
           id="path18"
           style="opacity:1;fill:#ffffff;stroke-width:0.264003"
           d="m 66.705148,46.015352 c 0.782495,0.160939 1.971609,-0.08588 2.744918,0.120988 l -0.02924,92.93869 -2.700773,-0.54427 z" /><path
           id="path19"
           style="opacity:1;fill:#ffffff;stroke-width:0.448654"
           d="m 66.697105,45.789949 10.254798,-2.451527 v 2.872476 l -10.243105,2.549083 z" /><path
           id="path20"
           style="opacity:1;fill:#ffffff;stroke-width:0.264583"
           d="m 66.741142,132.95312 c 25.097269,2.97665 53.107588,13.07934 74.678638,26.45833 l -3.175,0.66147 C 116.20972,152.49983 92.42811,144.62511 66.741142,138.44323 Z" /><path
           id="path21"
           style="opacity:1;fill:#ffffff;stroke-width:0.264583"
           d="m 136.62422,159.31224 4.62194,-0.008 4.15478,2.58795 -6.19703,1.91823 c -1.16622,-1.28023 -1.84816,-2.95687 -2.57969,-4.49791 z" /><path
           id="path22"
           style="opacity:1;fill:#ffffff;stroke-width:0.264583"
           transform="translate(4.6963542,0.72760416)"
           d="m 147.68084,168.93938 c -2.11291,-0.0781 -5.56172,0.41548 -8.50282,-1.47467 -1.78922,-1.19469 -3.53043,-2.66756 -4.71647,-4.4509 l 6.49545,-6.66344 7.07606,2.40209 z" /><path
           id="path23"
           style="opacity:1;fill:#ffffff;stroke-width:0.125547"
           d="m 138.8212,163.35167 h 0.23331 l 0.73734,0.94713 h -0.23331 c -0.2795,-0.30886 -0.51134,-0.62741 -0.73734,-0.94713 z" /></g></g></g></svg>
